<?xml version="1.0" standalone="no"?>
<!DOCTYPE svg PUBLIC "-//W3C//DTD SVG 20010904//EN"
 "http://www.w3.org/TR/2001/REC-SVG-20010904/DTD/svg10.dtd">
<svg version="1.0" xmlns="http://www.w3.org/2000/svg"
 width="512.000000pt" height="512.000000pt" viewBox="0 0 512.000000 512.000000"
 preserveAspectRatio="xMidYMid meet">

<g transform="translate(0.000000,512.000000) scale(0.100000,-0.100000)"
fill="#000000" stroke="none">
<path d="M2336 4889 c-49 -5 -91 -11 -94 -14 -14 -13 18 -19 134 -26 115 -7
247 -23 283 -35 10 -3 -4 -21 -42 -55 -37 -33 -60 -63 -68 -87 -7 -23 -9 -102
-7 -210 l3 -174 33 -29 c43 -39 84 -39 123 0 l29 29 0 160 0 160 45 40 44 39
-39 32 c-47 37 -72 80 -79 136 l-6 40 -135 1 c-74 1 -175 -2 -224 -7z"/>
<path d="M1314 4788 c-10 -22 -35 -54 -56 -71 l-38 -31 40 -41 40 -41 0 -147
c0 -162 8 -194 55 -215 33 -15 47 -15 80 0 49 22 55 50 55 253 l0 187 -62 65
c-87 89 -91 91 -114 41z"/>
<path d="M3120 4801 c-7 -17 -29 -46 -50 -65 l-38 -34 115 -56 c63 -31 145
-76 183 -100 l68 -44 52 15 c66 19 124 11 183 -27 76 -48 121 -153 99 -234
-10 -34 -8 -38 45 -103 154 -186 269 -413 328 -645 52 -206 56 -360 15 -508
-34 -120 -26 -213 24 -285 11 -16 66 -87 122 -156 197 -244 284 -375 284 -425
0 -56 -115 -140 -272 -199 l-48 -18 0 -95 0 -94 -38 -37 c-20 -20 -54 -51 -75
-69 -21 -19 -36 -40 -33 -47 29 -77 11 -130 -67 -197 -29 -25 -65 -69 -81 -99
-27 -49 -30 -66 -37 -189 -4 -74 -13 -153 -19 -175 -36 -122 -136 -239 -231
-270 -41 -14 -75 -16 -163 -13 -103 5 -123 9 -278 62 -159 55 -168 57 -196 42
-27 -14 -48 -46 -156 -236 l-31 -55 -3 -212 -3 -213 29 0 c16 0 69 7 118 15
1021 175 1822 968 2003 1983 114 634 -23 1275 -387 1811 -303 448 -762 791
-1277 954 -170 53 -170 53 -185 18z"/>
<path d="M1920 4499 c0 -210 6 -237 59 -259 39 -16 86 -5 111 27 18 24 20 40
20 218 l0 193 -64 -5 c-35 -3 -78 -1 -95 5 l-31 11 0 -190z"/>
<path d="M692 4160 c-18 -22 -48 -47 -65 -56 -18 -9 -34 -18 -36 -20 -2 -2 13
-22 33 -45 l35 -42 -19 -26 c-91 -118 -240 -349 -240 -373 0 -4 16 0 35 8 19
7 45 14 58 14 21 0 28 10 47 63 23 62 99 221 127 264 l15 23 25 -20 c24 -18
41 -20 222 -20 218 0 231 3 251 64 12 39 3 71 -30 101 -20 18 -39 20 -185 23
l-164 3 -35 40 c-20 21 -37 39 -38 39 -2 0 -18 -18 -36 -40z"/>
<path d="M3265 4160 l-39 -40 -149 0 c-112 0 -155 -4 -177 -15 -59 -30 -68
-98 -21 -146 l29 -29 197 0 197 0 69 67 c38 36 69 72 69 78 0 7 -14 18 -30 25
-17 7 -48 32 -69 56 l-38 43 -38 -39z"/>
<path d="M1505 4081 c-77 -19 -146 -81 -164 -148 -15 -52 -15 -1014 0 -1066
13 -47 60 -102 113 -130 39 -21 55 -22 340 -25 l298 -3 -26 33 c-59 78 -70
151 -36 240 17 45 18 54 5 68 -8 8 -24 41 -36 73 l-22 57 -129 0 -129 0 -15
-37 c-36 -86 -46 -102 -75 -112 -54 -19 -99 15 -99 73 0 33 232 641 255 666 9
10 30 22 45 25 24 5 28 12 33 55 9 73 39 133 96 190 l50 50 -237 -1 c-130 -1
-250 -4 -267 -8z"/>
<path d="M1809 3424 l-37 -94 74 0 73 0 -29 81 c-17 45 -34 88 -38 95 -4 8
-21 -22 -43 -82z"/>
<path d="M737 3478 c4 -13 8 -48 8 -78 0 -30 -4 -65 -8 -77 l-8 -23 181 0
c209 0 240 7 267 65 17 35 17 38 -2 73 -29 54 -60 61 -268 61 l-178 1 8 -22z"/>
<path d="M2923 3493 c-68 -13 -97 -107 -48 -155 34 -34 60 -38 257 -38 l170 0
-8 33 c-5 17 -9 48 -9 67 0 19 4 50 9 68 l8 32 -179 -1 c-98 -1 -188 -4 -200
-6z"/>
<path d="M262 3297 c-63 -174 -106 -350 -133 -547 -17 -123 -17 -477 0 -600
64 -470 240 -883 527 -1240 71 -88 279 -301 331 -338 l30 -21 76 342 c96 428
99 482 25 635 -22 48 -61 96 -152 192 -175 182 -261 300 -348 475 l-41 83 -38
-5 c-81 -11 -180 48 -223 134 -23 46 -21 137 5 190 21 44 83 103 107 103 11 0
13 10 8 43 -3 23 -9 134 -12 245 l-7 204 -48 48 c-33 33 -52 63 -62 96 l-14
48 -31 -87z"/>
<path d="M658 2799 c-38 -39 -68 -75 -68 -79 0 -4 11 -11 24 -14 27 -7 86 -59
104 -91 10 -19 13 -18 47 22 l35 42 164 3 c147 3 166 5 186 23 33 30 42 62 30
101 -20 61 -32 64 -255 64 l-200 0 -67 -71z"/>
<path d="M2879 2841 c-47 -48 -38 -116 21 -146 22 -11 65 -15 177 -15 l149 0
39 -40 39 -39 35 41 c19 22 53 49 75 59 l41 18 -76 75 -75 76 -198 0 -198 0
-29 -29z"/>
<path d="M1351 2556 c-44 -24 -50 -51 -51 -211 l0 -149 -41 -42 -41 -42 45
-41 c25 -23 50 -55 57 -71 7 -17 16 -30 20 -30 3 0 39 33 78 74 l72 74 0 185
c0 202 -5 229 -51 253 -34 17 -57 17 -88 0z"/>
<path d="M1971 2556 c-46 -25 -50 -48 -51 -253 l0 -192 31 11 c17 6 60 8 95 5
l64 -5 0 195 0 195 -29 29 c-32 32 -70 37 -110 15z"/>
<path d="M2578 2541 l-33 -29 -3 -184 c-3 -215 -1 -221 95 -306 l62 -54 14 34
c8 19 34 52 59 73 l44 38 -43 40 -43 40 0 159 0 160 -29 29 c-39 39 -80 39
-123 0z"/>
</g>
</svg>
